<svg width="192" height="127" viewBox="0 0 192 127" fill="none" xmlns="http://www.w3.org/2000/svg">
<mask id="mask0_4_82" style="mask-type:alpha" maskUnits="userSpaceOnUse" x="0" y="0" width="195" height="135">
<path d="M82 48.5L123 116C120.167 119.167 111 125.3 97 124.5C83 123.7 72.8333 118.5 69.5 116L114 38C116.667 30.8333 124 28.5 134 28.5C152.5 28.5 169 74.5 185 103.5C178.333 103.667 154.1 95.9 148.5 93.5C142.9 91.1 122.5 55 109 33.5M106.5 28.5L93 10.5L72 48.5L50 86.5C43.1667 92.3333 25.7 103.4 10.5 101L44 33.5C45.8333 31.6667 54.9 28.1 60.5 28.5C66.1 28.9 73.1667 34.6667 78.5 42" stroke="#FF0000" stroke-width="20" stroke-linejoin="round"/>
</mask>
<g mask="url(#mask0_4_82)">
<path fill-rule="evenodd" clip-rule="evenodd" d="M126.15 117.898C121.687 121.476 110.768 127 94.0133 127C77.2397 127 66.7743 121.463 62.6173 117.886C61.9132 117.28 61.8113 116.257 62.2796 115.453L88.945 69.6589L79.2309 55.6421L85.5662 46.2977L94.0133 60.5418C95.8155 57.7759 101.802 48.2515 111.33 32.2809C120.858 16.3104 140.472 19.1137 149.764 32.2809L190.155 102.147C190.973 103.562 189.958 105.338 188.329 105.338H175.528C147.767 105.338 135.926 92.0197 133.368 85.1584C133.315 85.0164 133.252 84.8848 133.173 84.7559C133.173 84.7559 119.14 61.9595 111.33 49.2709L99.4199 69.6589L126.537 115.386C127.032 116.221 126.906 117.292 126.15 117.898ZM94.0133 79.0033L114.709 112.559C99.1412 119.877 90.7201 119.966 76.2789 112.559L94.0133 79.0033ZM141.739 79.0033L118.932 39.5017C127.839 28.5992 132.833 27.6761 141.739 39.5017L175.528 95.9933C153.903 95.9933 143.992 84.6667 141.739 79.0033Z" fill="black"/>
<path d="M47.5542 79.0033C44.4569 84.9498 33.532 96.6729 14.6105 95.9933L47.5542 38.6522C50.3699 33.6968 58.9578 26.9291 70.7837 39.5017L76.2789 30.1572C58.0368 14.8662 44.1784 25.2018 39.5295 32.2809L-0.529404 102.365C-1.41217 103.639 -1.16294 105.338 1.16002 105.338H14.6105C41.4182 103.99 52.994 91.3899 55.5178 85.1054C55.5388 85.0531 55.5592 85.0012 55.5789 84.9498L55.6658 84.801L94.0133 19.1137L103.305 32.2809L108.796 23.3612L95.8608 2.91975C95.0149 1.58284 93.0636 1.61489 92.2615 2.97887L76.2789 30.1572L70.7837 39.5017L47.5542 79.0033Z" fill="black"/>
</g>
</svg>
